<?xml version="1.0" standalone="no"?>
<!DOCTYPE svg PUBLIC "-//W3C//DTD SVG 20010904//EN"
 "http://www.w3.org/TR/2001/REC-SVG-20010904/DTD/svg10.dtd">
<svg version="1.0" xmlns="http://www.w3.org/2000/svg"
 width="600.000000pt" height="258.000000pt" viewBox="0 0 600.000000 258.000000"
 preserveAspectRatio="xMidYMid meet">

<g transform="translate(0.000000,258.000000) scale(0.100000,-0.100000)"
fill="#ffffff" stroke="none">
<path d="M952 2287 c-44 -14 -118 -80 -142 -127 -11 -21 -22 -57 -26 -79 -7
-41 -6 -41 25 -41 94 0 200 118 201 223 0 40 -4 42 -58 24z"/>
<path d="M514 2004 c-64 -23 -119 -77 -156 -152 -32 -64 -33 -72 -32 -177 1
-90 5 -124 27 -190 30 -91 84 -187 141 -252 67 -77 115 -89 208 -52 68 27 139
27 206 0 29 -12 67 -21 85 -21 71 0 156 86 224 225 l34 70 -23 15 c-87 58
-128 131 -128 224 0 75 23 128 78 181 l41 40 -27 29 c-73 77 -189 95 -325 50
l-77 -26 -75 26 c-84 29 -140 32 -201 10z"/>
<path d="M4351 2005 c-102 -29 -172 -93 -213 -194 -20 -50 -23 -73 -23 -221 0
-148 3 -171 23 -221 44 -109 123 -173 246 -199 205 -42 406 85 406 257 l0 33
-79 0 -79 0 -11 -44 c-19 -78 -87 -115 -188 -103 -59 6 -92 31 -123 92 -22 45
-24 61 -24 185 0 124 2 140 24 185 35 70 76 95 155 95 83 0 122 -26 150 -98
l20 -52 78 0 77 0 0 38 c0 48 -38 128 -81 171 -78 78 -234 111 -358 76z"/>
<path d="M1430 1998 c0 -7 51 -195 114 -418 l113 -405 86 -3 86 -3 14 48 c8
26 43 155 77 286 35 130 67 234 70 230 4 -5 40 -133 81 -285 l73 -278 88 0
c74 0 87 3 92 18 18 59 226 813 226 817 0 3 -41 4 -92 3 l-92 -3 -67 -288
c-37 -158 -69 -290 -72 -293 -2 -3 -38 128 -78 291 l-74 295 -87 0 -87 0 -10
-37 c-6 -21 -38 -150 -72 -288 -34 -137 -65 -253 -68 -257 -4 -4 -24 68 -45
160 -21 92 -51 224 -68 295 l-30 127 -89 0 c-65 0 -89 -3 -89 -12z"/>
<path d="M2847 2003 c-6 -10 -267 -818 -267 -827 0 -3 38 -6 85 -6 l84 0 21
73 c12 39 26 87 31 105 l11 32 133 0 134 0 14 -52 c9 -29 21 -75 29 -103 l14
-50 92 -3 c51 -1 92 1 91 5 0 4 -60 193 -132 418 l-132 410 -102 3 c-56 1
-104 -1 -106 -5z m149 -329 c24 -88 44 -160 44 -161 0 -2 -43 -3 -95 -3 -52 0
-95 3 -95 6 0 4 58 212 86 307 3 10 8 16 11 14 2 -3 24 -76 49 -163z"/>
<path d="M3330 1940 l0 -70 125 0 125 0 0 -350 0 -350 85 0 85 0 0 350 0 350
125 0 125 0 0 70 0 70 -335 0 -335 0 0 -70z"/>
<path d="M4980 1590 l0 -420 85 0 85 0 0 180 0 180 170 0 170 0 2 -177 3 -178
88 -3 87 -3 0 421 0 420 -90 0 -90 0 0 -170 0 -170 -167 2 -168 3 -3 168 -2
167 -85 0 -85 0 0 -420z"/>
<path d="M1843 670 c-51 -31 -68 -83 -42 -133 16 -29 30 -37 119 -67 74 -25
75 -25 75 -60 0 -28 -5 -37 -29 -49 -36 -17 -100 -1 -116 29 -7 13 -21 20 -40
20 -37 0 -39 -18 -4 -59 70 -84 241 -55 260 45 13 72 -18 104 -138 138 -32 9
-62 24 -66 34 -32 61 71 100 124 47 30 -30 74 -34 74 -7 0 23 -34 60 -67 73
-41 16 -115 11 -150 -11z"/>
<path d="M2210 500 l0 -190 120 0 120 0 0 25 c0 25 -1 25 -85 25 l-85 0 0 55
0 55 80 0 80 0 0 30 0 30 -80 0 -80 0 0 50 0 50 85 0 85 0 0 30 0 30 -120 0
-120 0 0 -190z"/>
<path d="M2600 500 l0 -190 30 0 30 0 0 70 0 70 40 0 c39 0 40 -1 75 -70 33
-66 37 -70 70 -70 l35 0 -36 73 -36 73 31 31 c26 27 31 39 31 82 0 90 -49 120
-197 121 l-73 0 0 -190z m194 108 c22 -32 20 -55 -9 -84 -21 -21 -33 -25 -73
-22 l-47 3 -3 63 -3 62 60 0 c51 0 62 -3 75 -22z"/>
<path d="M3027 683 c-4 -3 -7 -89 -7 -190 l0 -183 35 0 35 0 0 190 0 190 -28
0 c-16 0 -32 -3 -35 -7z"/>
<path d="M3250 500 l0 -190 120 0 120 0 0 25 c0 25 -1 25 -85 25 l-85 0 0 55
0 55 80 0 80 0 0 30 0 30 -80 0 -80 0 0 50 0 50 85 0 85 0 0 30 0 30 -120 0
-120 0 0 -190z"/>
<path d="M3673 670 c-39 -23 -60 -81 -44 -122 13 -35 47 -56 118 -75 90 -23
116 -59 72 -99 -33 -29 -96 -25 -125 9 -15 18 -33 27 -53 27 -29 0 -30 -1 -19
-30 21 -63 109 -95 190 -71 59 18 88 54 88 108 0 54 -29 87 -91 103 -88 22
-114 35 -117 59 -9 58 87 86 126 36 14 -17 30 -25 51 -25 17 0 31 2 31 5 0 20
-35 67 -60 80 -42 22 -128 19 -167 -5z"/>
<path d="M4218 673 c-55 -35 -61 -118 -11 -150 l25 -16 -26 -14 c-33 -17 -46
-43 -46 -88 0 -105 179 -143 254 -54 14 17 26 42 26 55 0 27 -26 84 -38 84 -4
0 -14 4 -22 10 -12 7 -9 13 13 30 38 30 38 96 2 130 -34 32 -136 40 -177 13z
m130 -45 c17 -17 15 -58 -5 -80 -21 -24 -68 -23 -93 2 -24 24 -25 38 -4 68 17
25 81 31 102 10z m7 -168 c60 -66 -37 -146 -109 -89 -52 41 -20 109 52 109 26
0 45 -7 57 -20z"/>
</g>
</svg>
