<?xml version="1.0" standalone="no"?>
<!DOCTYPE svg PUBLIC "-//W3C//DTD SVG 20010904//EN"
 "http://www.w3.org/TR/2001/REC-SVG-20010904/DTD/svg10.dtd">
<svg version="1.0" xmlns="http://www.w3.org/2000/svg"
 width="438.000000pt" height="115.000000pt" viewBox="0 0 438.000000 115.000000"
 preserveAspectRatio="xMidYMid meet">

<g transform="translate(0.000000,115.000000) scale(0.100000,-0.100000)"
fill="#000000" stroke="none">
<path d="M660 1141 c-69 -21 -130 -73 -165 -140 -18 -36 -30 -107 -19 -113 5
-3 28 -1 51 4 85 18 173 128 173 216 0 44 -1 45 -40 33z"/>
<path d="M1280 970 l0 -100 -65 0 -65 0 0 -65 0 -64 63 -3 62 -3 5 -305 c5
-283 6 -308 25 -340 33 -57 91 -80 202 -80 l93 0 0 65 0 65 -45 0 c-55 0 -90
15 -104 47 -7 15 -11 116 -11 288 l0 265 80 0 80 0 0 66 0 66 -80 -4 -80 -3 0
103 0 102 -80 0 -80 0 0 -100z"/>
<path d="M212 851 c-73 -25 -120 -66 -161 -141 -32 -58 -36 -74 -39 -157 -8
-174 61 -362 176 -482 73 -77 101 -83 209 -47 43 14 87 26 98 26 11 0 57 -12
102 -27 74 -24 85 -25 123 -14 53 16 114 78 168 173 59 106 60 117 9 153 -78
56 -114 137 -104 233 7 62 43 130 89 166 l33 25 -30 31 c-75 79 -183 99 -306
56 -92 -32 -95 -32 -192 -1 -92 30 -106 30 -175 6z"/>
<path d="M1698 865 c-3 -3 62 -188 143 -411 82 -223 151 -414 154 -425 6 -17
17 -19 94 -19 l87 0 152 418 c84 230 152 424 152 430 0 17 -159 17 -165 0 -2
-7 -53 -163 -112 -345 -59 -183 -110 -333 -113 -333 -3 0 -55 154 -116 343
l-111 342 -80 3 c-43 1 -81 0 -85 -3z"/>
<path d="M2902 603 l-162 -267 0 -93 0 -93 215 0 215 0 0 -70 0 -70 100 0 99
0 3 67 3 68 68 3 67 3 0 84 0 85 -70 0 -70 0 0 275 0 275 -153 0 -152 0 -163
-267z m268 -103 l0 -180 -111 0 c-61 0 -109 4 -107 9 6 15 211 351 215 351 1
0 3 -81 3 -180z"/>
<path d="M3620 440 l0 -430 100 0 100 0 0 84 0 84 46 58 c25 33 48 60 52 61 4
2 47 -61 97 -138 49 -78 94 -143 100 -145 6 -3 66 -3 133 -2 l121 3 -154 235
-154 234 27 36 c15 20 79 102 142 184 63 81 117 151 118 157 2 5 -44 9 -112 9
l-115 0 -142 -185 c-78 -102 -146 -185 -151 -185 -4 0 -8 83 -8 185 l0 185
-100 0 -100 0 0 -430z"/>
</g>
</svg>
